<?xml version="1.0" standalone="no"?><!DOCTYPE svg PUBLIC "-//W3C//DTD SVG 1.1//EN" "http://www.w3.org/Graphics/SVG/1.1/DTD/svg11.dtd"><svg t="1684645839014" class="icon" viewBox="0 0 1024 1024" version="1.1" xmlns="http://www.w3.org/2000/svg" p-id="1065" xmlns:xlink="http://www.w3.org/1999/xlink" width="200" height="200"><path d="M512 56.888889a455.111111 455.111111 0 1 1 0 910.222222A455.111111 455.111111 0 0 1 512 56.888889z m0 56.888889a398.222222 398.222222 0 1 0 0 796.444444A398.222222 398.222222 0 0 0 512 113.777778z" fill="#999999" p-id="1066"></path><path d="M512 284.444444l197.063111 113.777778v227.555556L512 739.555556l-197.063111-113.777778V398.222222L512 284.444444z m0 65.706667L371.768889 431.047111v161.848889L512 673.792l140.174222-80.896V431.047111L512 350.151111z" fill="#979797" p-id="1067"></path><path d="M709.063111 398.222222v227.555556L512 739.555556l-197.063111-113.777778V398.222222L512 512l197.063111-113.777778z m-56.888889 194.673778v-96.142222L512 577.706667 371.825778 496.753778v96.142222L512 673.792l140.174222-80.896z" fill="#979797" p-id="1068"></path><path d="M483.555556 512h56.888888v227.555556h-56.888888z" fill="#999999" p-id="1069"></path></svg>