<?xml version="1.0" encoding="UTF-8"?><svg version="1.1" width="166px" height="166px" viewBox="0 0 166.0 166.0" xmlns="http://www.w3.org/2000/svg" xmlns:xlink="http://www.w3.org/1999/xlink"><defs><clipPath id="i0"><path d="M2857,0 L2857,3789 L0,3789 L0,0 L2857,0 Z"></path></clipPath><clipPath id="i1"><path d="M162,0 C164.209139,-4.05812251e-16 166,1.790861 166,4 L166,162 C166,164.209139 164.209139,166 162,166 L4,166 C1.790861,166 3.82325518e-15,164.209139 0,162 L0,4 C-2.705415e-16,1.790861 1.790861,3.95852593e-15 4,0 L162,0 Z"></path></clipPath><clipPath id="i2"><path d="M7.70897833,0 L7.70897833,4.65467307 C10.4439898,6.55538028 16.3899583,10.2449884 21.2767802,10.2449884 C27.8662808,10.2449884 37.5460762,10.3156029 41.7558487,11.3571669 C45.9656212,12.3987309 52.3942388,12.2633864 53.6544892,11.9809284 C54.2913178,11.8396994 52.0305761,15.165937 49.6106273,18.5274819 L49.2062979,19.0874778 C46.9120659,22.2559706 44.6115224,25.2858789 44.6115224,25.2858789 L54.1304348,39.1498609 C54.1304348,39.1498609 48.9754745,37.8258388 42.1513528,37.3433063 C39.4830617,37.1525184 35.3029736,37.196085 30.939217,37.1579839 L29.889069,37.1471098 C29.5382975,37.1428546 29.1870306,37.1379148 28.8359481,37.1321289 L27.7839344,37.1120702 C22.0083836,36.9860043 16.4682002,36.5854876 14.2180374,35.1836793 C12.0125993,33.8066963 9.63957464,32.3826371 7.70227487,31.3175349 L7.70227487,72.173913 L0,72.173913 L0,0 L7.70897833,0 Z"></path></clipPath><clipPath id="i3"><path d="M56.9566271,0 C74.1760725,1.46556207 86.6021384,5.63137207 86.6086957,10.5349822 C86.6086957,16.6782972 67.2253443,21.6521739 43.3043478,21.6521739 C19.3833513,21.6521739 0,16.6782972 0,10.5349822 C0,5.6966197 12.1178732,1.56594304 29.0094541,0.0501904819 L29.0094541,4.40170527 C18.609591,5.53601016 11.4687014,7.85481043 11.4687014,10.5349822 C11.4687014,14.3293826 25.7242514,17.4060591 43.3043478,17.4060591 C60.8844442,17.4060591 75.1465515,14.3293826 75.1465515,10.5349822 C75.1465515,7.79960089 67.7171411,5.44064824 56.9566271,4.33645764 Z"></path></clipPath></defs><g transform="translate(-345.0 -746.0)"><g clip-path="url(#i0)"><g transform="translate(511.0 746.0) scale(-1.0 1.0)"><g clip-path="url(#i1)"><polygon points="0,0 166,0 166,166 0,166 0,0" stroke="none" fill="rgba(0, 0, 0, 0.60484)" opacity="69.9999988%"></polygon></g><g transform="translate(126.84499604742632 39.69565217391937) scale(-1.0 1.0)"><g transform="translate(36.08695652173992 0.0)"><g clip-path="url(#i2)"><polygon points="0,0 54.1304348,0 54.1304348,72.173913 0,72.173913 0,0" stroke="none" fill="#FFEBD5"></polygon></g></g><g transform="translate(0.0 61.3478260869524)"><g clip-path="url(#i3)"><polygon points="0,0 86.6086957,0 86.6086957,21.6521739 0,21.6521739 0,0" stroke="none" fill="#FFEBD5"></polygon></g></g></g></g></g></g></svg>